HIERARCHY
ROOT Hips
{
	OFFSET -0.001795 -0.223333 0.028219
	CHANNELS 6 Xposition Yposition Zposition Zrotation Yrotation Xrotation 
	JOINT LeftUpLeg
	{
		OFFSET 0.069520 -0.091406 -0.006815
		CHANNELS 3 Zrotation Yrotation Xrotation
		JOINT LeftLeg
		{
			OFFSET 0.034277 -0.375199 -0.004496
			CHANNELS 3 Zrotation Yrotation Xrotation
			JOINT LeftFoot
			{
				OFFSET -0.013596 -0.397961 -0.043693
				CHANNELS 3 Zrotation Yrotation Xrotation
				JOINT LeftToe
				{
					OFFSET 0.026358 -0.055791 0.119288
					CHANNELS 3 Zrotation Yrotation Xrotation
					End Site
					{
						OFFSET 0.000000 0.000000 0.000000
					}
				}
			}
		}
	}
	JOINT RightUpLeg
	{
		OFFSET -0.067670 -0.090522 -0.004320
		CHANNELS 3 Zrotation Yrotation Xrotation
		JOINT RightLeg
		{
			OFFSET -0.038290 -0.382569 -0.008850
			CHANNELS 3 Zrotation Yrotation Xrotation
			JOINT RightFoot
			{
				OFFSET 0.015774 -0.398415 -0.042312
				CHANNELS 3 Zrotation Yrotation Xrotation
				JOINT RightToe
				{
					OFFSET -0.025372 -0.048144 0.123348
					CHANNELS 3 Zrotation Yrotation Xrotation
					End Site
					{
						OFFSET 0.000000 0.000000 0.000000
					}
				}
			}
		}
	}
	JOINT Spine
	{
		OFFSET -0.002533 0.108963 -0.026696
		CHANNELS 3 Zrotation Yrotation Xrotation
		JOINT Spine1
		{
			OFFSET 0.005487 0.135180 0.001092
			CHANNELS 3 Zrotation Yrotation Xrotation
			JOINT Spine2
			{
				OFFSET 0.001457 0.052922 0.025425
				CHANNELS 3 Zrotation Yrotation Xrotation
				JOINT Neck
				{
					OFFSET -0.002778 0.213870 -0.042857
					CHANNELS 3 Zrotation Yrotation Xrotation
					JOINT Head
					{
						OFFSET 0.005152 0.064970 0.051349
						CHANNELS 3 Zrotation Yrotation Xrotation
						End Site
						{
							OFFSET 0.000000 0.000000 0.000000
						}
					}
				}
				JOINT LeftShoulder
				{
					OFFSET 0.078845 0.121749 -0.034090
					CHANNELS 3 Zrotation Yrotation Xrotation
					JOINT LeftArm
					{
						OFFSET 0.090977 0.030469 -0.008868
						CHANNELS 3 Zrotation Yrotation Xrotation
						JOINT LeftForeArm
						{
							OFFSET 0.259612 -0.012772 -0.027456
							CHANNELS 3 Zrotation Yrotation Xrotation
							JOINT LeftHand
							{
								OFFSET 0.249234 0.008986 -0.001171
								CHANNELS 3 Zrotation Yrotation Xrotation
								End Site
								{
									OFFSET 0.000000 0.000000 0.000000
								}
							}
						}
					}
				}
				JOINT RightShoulder
				{
					OFFSET -0.081759 0.118833 -0.038615
					CHANNELS 3 Zrotation Yrotation Xrotation
					JOINT RightArm
					{
						OFFSET -0.096012 0.032551 -0.009143
						CHANNELS 3 Zrotation Yrotation Xrotation
						JOINT RightForeArm
						{
							OFFSET -0.253742 -0.013329 -0.021401
							CHANNELS 3 Zrotation Yrotation Xrotation
							JOINT RightHand
							{
								OFFSET -0.255298 0.007772 -0.005559
								CHANNELS 3 Zrotation Yrotation Xrotation
								End Site
								{
									OFFSET 0.000000 0.000000 0.000000
								}
							}
						}
					}
				}
			}
		}
	}
}
MOTION
Frames: 16
Frame Time: 0.050000
0.000000 0.944932 0.000000 -1.966161 0.367732 0.114054 -0.256631 -0.006535 -0.106733 -0.622760 -0.048243 3.983560 1.548389 3.998054 1.841944 0.000000 0.000000 0.000000 4.144506 0.234321 -2.398552 -0.026814 0.331825 8.297713 0.151752 -0.132341 1.008005 0.000000 0.000000 0.000000 4.241021 -0.022406 -0.187901 -1.241129 0.596711 -0.059630 -3.966146 3.787973 7.379673 9.963250 -4.943021 -14.198352 0.000000 0.000000 0.000000 -24.741945 -8.898142 1.296819 -49.973112 -3.918273 -4.114587 -8.548535 -22.751440 2.393887 0.000000 0.000000 0.000000 23.268148 1.233778 0.124992 57.415396 7.194872 -2.746132 9.262200 26.334378 3.224495 0.000000 0.000000 0.000000 
-0.000035 0.944419 0.000241 -2.355598 0.569031 0.504880 0.589229 -0.008150 0.006082 -0.735845 -0.019122 3.497767 1.771314 4.129433 0.981036 0.000000 0.000000 0.000000 4.330833 0.306111 -2.939125 0.216775 0.290432 8.433451 0.042315 -0.326461 0.855509 0.000000 0.000000 0.000000 4.934066 0.065275 -1.382972 -0.737698 0.325611 1.261038 -5.055860 3.837618 7.009976 10.834980 -5.356182 -14.697327 0.000000 0.000000 0.000000 -24.690946 -9.005063 1.212978 -49.941903 -4.283085 -3.889376 -8.516388 -23.229758 2.416725 0.000000 0.000000 0.000000 22.834114 0.609548 -0.136850 58.857220 6.434533 -3.092789 9.374036 27.002450 3.375427 0.000000 0.000000 0.000000 
-0.000080 0.944396 -0.000138 -2.136618 -0.336783 0.937635 0.272581 -0.067970 -0.722688 -0.607793 -0.043413 3.851565 2.016557 4.612993 0.929346 0.000000 0.000000 0.000000 4.487271 0.350530 -3.337833 -0.540957 0.431200 8.296710 0.408957 0.321080 1.344543 0.000000 0.000000 0.000000 5.449640 0.080601 -1.606877 -1.156006 0.555080 -0.101320 -4.812080 4.072538 7.988636 9.737424 -4.837001 -14.064264 0.000000 0.000000 0.000000 -24.796650 -9.060953 1.418865 -49.831372 -3.967656 -4.139280 -8.678241 -22.481170 2.400166 0.000000 0.000000 0.000000 23.351582 0.881300 -0.065507 57.916935 5.267164 -3.734495 9.807128 27.751082 3.573266 0.000000 0.000000 0.000000 
-0.000194 0.945168 -0.000822 -2.299397 -0.474713 0.943199 0.370557 -0.076303 -0.808923 -0.647096 -0.041583 4.006072 2.086148 4.749918 0.912590 0.000000 0.000000 0.000000 4.982483 0.384898 -3.570665 -0.836639 0.486601 8.319844 0.666824 0.905319 1.443082 0.000000 0.000000 0.000000 5.578040 0.093238 -1.740365 -1.115101 0.524710 0.663235 -4.843473 3.736521 7.614912 9.679553 -4.767740 -14.315482 0.000000 0.000000 0.000000 -24.659259 -8.940810 1.473207 -50.441226 -3.969201 -4.200041 -8.836627 -23.198976 2.521139 0.000000 0.000000 0.000000 23.126314 0.830512 -0.223499 57.894389 5.338027 -3.628308 10.597441 27.521329 3.693542 0.000000 0.000000 0.000000 
-0.000283 0.946128 -0.001918 -2.167667 -1.107446 0.999814 0.344329 -0.126513 -1.378442 -0.663464 -0.051022 4.551734 2.133532 5.035483 1.469715 0.000000 0.000000 0.000000 4.894466 0.382684 -3.597162 -1.120326 0.534490 8.162323 1.091488 1.811931 1.671800 0.000000 0.000000 0.000000 5.721830 0.080411 -1.582369 -0.996427 0.466491 0.829661 -4.997745 3.924954 7.344893 9.836916 -5.008349 -13.657384 0.000000 0.000000 0.000000 -24.754514 -9.333351 1.734391 -50.208374 -3.751905 -4.252306 -9.413166 -23.490250 2.675251 0.000000 0.000000 0.000000 23.262663 0.610622 -0.408053 57.355031 4.871595 -3.801853 11.103093 28.095414 3.892602 0.000000 0.000000 0.000000 
-0.000254 0.946767 -0.002756 -2.296210 -1.464619 1.239938 0.552812 -0.149263 -1.636131 -0.897084 -0.017526 4.720318 2.511084 5.673231 1.066152 0.000000 0.000000 0.000000 5.020441 0.427068 -3.939937 -1.072030 0.531384 8.217743 1.369716 2.393282 1.834670 0.000000 0.000000 0.000000 5.988286 0.071515 -1.517528 -0.952170 0.452389 0.306028 -4.887320 3.690680 7.873575 9.436029 -4.694845 -14.195694 0.000000 0.000000 0.000000 -24.611938 -9.338498 1.940680 -50.597807 -3.620788 -4.444125 -9.923376 -24.626417 2.946496 0.000000 0.000000 0.000000 23.230254 0.889780 -0.367524 57.216807 4.811587 -3.848862 10.958551 27.702294 3.770775 0.000000 0.000000 0.000000 
-0.000076 0.947214 -0.003218 -2.224500 -1.771540 1.139488 0.528822 -0.146461 -1.604927 -0.923141 -0.003908 4.398705 2.671752 6.202336 1.728305 0.000000 0.000000 0.000000 4.992979 0.404235 -3.790359 -1.256506 0.560039 8.101021 1.693224 2.962711 2.192717 0.000000 0.000000 0.000000 6.001588 0.043160 -1.183354 -0.965313 0.458352 0.391113 -4.772929 3.280976 7.807593 9.400815 -4.675627 -14.457501 0.000000 0.000000 0.000000 -24.826260 -9.055718 1.970696 -50.598798 -3.359006 -4.603058 -10.186146 -25.346215 3.123184 0.000000 0.000000 0.000000 22.875126 1.120417 -0.406130 57.058842 4.423243 -3.976174 11.003048 27.604370 3.722370 0.000000 0.000000 0.000000 
0.000287 0.947492 -0.003184 -2.240979 -1.888543 1.234755 0.602950 -0.153807 -1.690381 -0.988127 0.006422 4.409440 2.852370 6.551561 1.679085 0.000000 0.000000 0.000000 4.858809 0.405096 -3.816906 -1.163574 0.536585 7.954834 1.638002 2.822100 2.193822 0.000000 0.000000 0.000000 6.124690 0.043665 -1.207047 -0.929742 0.441446 0.363367 -4.775088 3.044059 7.987398 9.235878 -4.540217 -14.798030 0.000000 0.000000 0.000000 -24.980740 -8.989494 2.046785 -50.608450 -3.359982 -4.651077 -10.291798 -25.815899 3.227410 0.000000 0.000000 0.000000 22.759476 1.049943 -0.534672 56.808970 4.213654 -4.058893 10.872773 27.256741 3.618038 0.000000 0.000000 0.000000 
0.000850 0.947634 -0.002755 -2.263624 -1.912817 1.219288 0.448063 -0.133573 -1.454705 -0.899008 0.004869 3.913720 3.133215 7.194790 1.960602 0.000000 0.000000 0.000000 4.854788 0.399206 -3.775620 -1.230931 0.545574 7.902615 1.479880 2.399750 2.250865 0.000000 0.000000 0.000000 6.166306 0.040532 -1.169742 -0.880405 0.417885 0.346632 -4.724197 2.918904 8.082939 9.074494 -4.450499 -14.816003 0.000000 0.000000 0.000000 -25.221958 -9.004169 2.104355 -50.558570 -3.422818 -4.640273 -10.189281 -25.760213 3.206587 0.000000 0.000000 0.000000 22.882168 1.103908 -0.552257 56.397089 3.956593 -4.160781 10.757354 26.779453 3.507467 0.000000 0.000000 0.000000 
0.001548 0.947799 -0.002168 -2.195743 -1.950795 1.139047 0.324163 -0.113205 -1.224835 -0.871440 0.008714 3.596296 3.414542 7.811049 2.170124 0.000000 0.000000 0.000000 4.821725 0.379388 -3.634428 -1.473452 0.589072 7.926353 1.410928 2.321332 2.095633 0.000000 0.000000 0.000000 6.231686 0.049828 -1.246042 -0.852711 0.402965 0.491554 -4.748792 2.907152 8.201572 8.977329 -4.352788 -15.040965 0.000000 0.000000 0.000000 -25.288271 -8.952790 2.086007 -50.639949 -3.406044 -4.668608 -9.975026 -25.589507 3.139411 0.000000 0.000000 0.000000 22.767120 1.022839 -0.597951 56.459038 3.838214 -4.230333 10.470484 26.342518 3.378565 0.000000 0.000000 0.000000 
0.002414 0.947923 -0.001476 -2.212840 -1.923420 1.110942 0.221490 -0.108117 -1.169696 -0.754659 -0.006812 3.535737 3.420767 7.836321 2.219455 0.000000 0.000000 0.000000 4.769604 0.390784 -3.710976 -1.444444 0.592021 8.065610 1.213025 1.841812 2.089181 0.000000 0.000000 0.000000 6.391566 0.054336 -1.284947 -0.886952 0.419437 0.497696 -4.807968 2.934212 8.326928 8.867652 -4.282360 -15.035627 0.000000 0.000000 0.000000 -25.455746 -8.973795 2.079197 -50.750320 -3.290397 -4.731345 -9.654767 -25.109670 3.007195 0.000000 0.000000 0.000000 22.818375 0.852760 -0.682547 56.284183 3.530064 -4.378636 10.549999 26.019336 3.351250 0.000000 0.000000 0.000000 
0.003256 0.948014 -0.000819 -2.215815 -2.130528 0.992629 0.064727 -0.096076 -1.039557 -0.724502 -0.009531 3.507703 3.658023 8.280930 2.123112 0.000000 0.000000 0.000000 4.754618 0.385264 -3.673814 -1.452911 0.606507 8.268584 1.103476 1.663388 1.921713 0.000000 0.000000 0.000000 6.485301 0.049329 -1.197236 -0.954490 0.453013 0.463866 -4.698881 3.180585 8.452792 8.664832 -4.073220 -15.422488 0.000000 0.000000 0.000000 -25.587593 -9.008089 2.056291 -50.796218 -2.952546 -4.873139 -9.099020 -24.705483 2.832483 0.000000 0.000000 0.000000 22.888779 0.684958 -0.745393 56.208181 3.375362 -4.468160 10.235856 25.963602 3.283565 0.000000 0.000000 0.000000 
0.004014 0.948010 -0.000161 -2.208905 -2.285273 0.967377 -0.026708 -0.089525 -0.969360 -0.685691 -0.015082 3.531257 3.829703 8.660325 2.290176 0.000000 0.000000 0.000000 4.834869 0.409536 -3.845967 -1.562449 0.643407 8.546595 0.841210 1.004507 1.940658 0.000000 0.000000 0.000000 6.492189 0.048123 -1.170812 -1.039564 0.493891 0.563113 -4.659916 3.368536 8.481170 8.455439 -3.899175 -15.582608 0.000000 0.000000 0.000000 -25.647898 -8.842180 1.913622 -50.786225 -2.732476 -4.952519 -8.559455 -24.348800 2.669804 0.000000 0.000000 0.000000 23.087914 0.716915 -0.703095 56.179092 3.144336 -4.586740 10.054615 26.107680 3.272255 0.000000 0.000000 0.000000 
0.004555 0.948079 0.000469 -2.164265 -2.370714 0.875694 -0.123132 -0.077334 -0.840010 -0.674699 -0.012420 3.379741 3.990054 8.924115 2.057166 0.000000 0.000000 0.000000 4.952834 0.405031 -3.805732 -1.746863 0.689245 8.745934 0.687036 0.800329 1.629209 0.000000 0.000000 0.000000 6.411221 0.036386 -1.028657 -1.004120 0.476403 0.629209 -4.648727 3.727283 8.466837 8.542034 -3.896972 -15.710815 0.000000 0.000000 0.000000 -25.775042 -8.851599 1.792355 -50.655090 -2.199471 -5.118863 -8.165761 -24.136476 2.547420 0.000000 0.000000 0.000000 23.372966 0.464114 -0.768975 56.052539 3.104235 -4.622309 9.836646 26.331335 3.276808 0.000000 0.000000 0.000000 
0.004925 0.948228 0.000981 -2.196524 -2.292614 0.881769 -0.082499 -0.063133 -0.686366 -0.617328 -0.018530 3.285963 3.978490 8.928816 2.176819 0.000000 0.000000 0.000000 5.044597 0.429049 -3.962895 -1.788088 0.711288 8.992315 0.422868 0.208925 1.527556 0.000000 0.000000 0.000000 6.437420 0.036573 -1.034719 -1.090276 0.517350 0.723598 -4.628276 3.825816 8.451707 8.453673 -3.781271 -15.955882 0.000000 0.000000 0.000000 -25.661166 -8.607400 1.595622 -50.500436 -1.794885 -5.252497 -7.992255 -24.201483 2.510260 0.000000 0.000000 0.000000 23.343151 0.449237 -0.731154 56.476114 3.062475 -4.676056 9.358965 26.660997 3.229564 0.000000 0.000000 0.000000 
0.005180 0.948394 0.001257 -2.183469 -2.010050 0.865645 -0.077850 -0.048097 -0.525827 -0.494526 -0.030380 3.043935 3.947219 8.864708 2.163245 0.000000 0.000000 0.000000 5.049416 0.450363 -4.092622 -1.823051 0.729986 9.229199 0.206579 -0.227194 1.361576 0.000000 0.000000 0.000000 6.189765 0.023331 -0.906883 -1.003027 0.476076 0.494107 -4.557414 4.014979 8.585806 8.585897 -3.688733 -16.774298 0.000000 0.000000 0.000000 -25.606299 -8.635970 1.504440 -50.379686 -1.326775 -5.409429 -8.105176 -24.347656 2.536707 0.000000 0.000000 0.000000 23.301392 0.382386 -0.661981 56.802429 3.186158 -4.672137 9.135120 27.020592 3.254237 0.000000 0.000000 0.000000 
